<svg width="87" height="44" viewBox="0 0 87 44" fill="none" xmlns="http://www.w3.org/2000/svg">
<path d="M0 12.4425C0.280537 12.2028 0.308131 11.8374 0.438052 11.5274C1.26817 9.55436 2.09253 7.57784 2.88701 5.59095C3.60904 3.785 4.40697 2.00901 5.06807 0.177702C5.10601 0.0728249 5.1658 -0.0228318 5.31296 0.00482799C5.39345 0.0198104 5.47968 0.00482799 5.56246 0.00713297C6.43281 0.0232678 6.24196 -0.143843 6.60757 0.732049C7.27443 2.32825 7.92633 3.93136 8.58168 5.53217C9.27383 7.22403 9.96023 8.91819 10.6558 10.6077C11.394 12.4022 12.139 14.1931 12.8806 15.9864C13.4394 17.3371 13.997 18.6879 14.5546 20.0386C14.5741 20.0858 14.5822 20.1365 14.5971 20.1849C14.7052 20.5272 14.6638 20.5998 14.3189 20.6091C13.9027 20.6206 13.4853 20.6114 13.0691 20.6148C12.8599 20.616 12.7449 20.5215 12.6656 20.3232C11.7113 17.9687 10.7478 15.6176 9.78776 13.2665C9.40145 12.3203 9.01514 11.3741 8.62882 10.4291C8.56559 10.2758 8.48166 10.1802 8.28505 10.1905C6.60987 10.2793 4.9324 10.2136 3.25607 10.2332C3.06522 10.2355 2.94909 10.3058 2.87781 10.481C2.63061 11.086 2.37307 11.6876 2.13162 12.295C1.95226 12.7468 1.84764 12.8355 1.359 12.8274C0.905998 12.8194 0.4484 12.8816 0.00114974 12.7571V12.4448L0 12.4425ZM5.74067 6.8391C5.74067 6.8391 5.74067 6.84255 5.74067 6.84371C6.07294 6.84371 6.40637 6.84947 6.73865 6.84255C7.10771 6.83449 7.13186 6.80452 6.98699 6.48067C6.62252 5.66471 6.34313 4.81187 5.95107 4.00743C5.90048 3.90255 5.86829 3.76886 5.74872 3.76656C5.62799 3.7631 5.57281 3.89794 5.53256 4.00051C5.19109 4.86258 4.79328 5.70159 4.484 6.57748C4.40812 6.793 4.4633 6.83679 4.64841 6.83794C5.01173 6.84025 5.3762 6.83794 5.73952 6.83794L5.74067 6.8391Z" fill="black"/>
<path d="M16.2562 43.9999C16.255 43.9388 16.2493 43.9066 16.1711 43.8697C15.0754 43.3511 14.5684 42.4037 14.3223 41.2777C14.1774 40.6128 14.266 39.9362 14.2694 39.2655C14.2694 39.0477 14.4407 38.8702 14.7086 38.876C14.865 38.8783 15.0214 38.8783 15.1777 38.876C15.4732 38.8702 15.6825 39.0603 15.6986 39.3508C15.7422 40.1229 16.1458 40.5736 16.9391 40.6819C17.7773 40.796 18.62 40.834 19.4513 40.6277C20.2918 40.4191 20.5804 39.927 20.5827 39.0822C20.5884 36.9997 20.5781 34.9171 20.5769 32.8346C20.5769 29.9292 20.5769 27.0249 20.5792 24.1195C20.5792 23.7046 20.5942 23.6919 20.9977 23.6907C21.3001 23.6896 21.6025 23.6919 21.9037 23.6942C22.2571 23.6965 22.4341 23.8778 22.4349 24.2382C22.4349 26.2066 22.4337 28.1739 22.4337 30.1424C22.4337 33.4431 22.4383 36.7438 22.4314 40.0446C22.4292 40.9885 22.2417 41.8863 21.6968 42.6861C21.3415 43.207 20.9092 43.6254 20.3113 43.8524C20.2366 43.8812 20.1561 43.9077 20.1331 43.9999H16.2562Z" fill="black"/>
<path d="M54.9589 44C54.9589 37.3674 54.9589 30.7348 54.9497 24.1011C54.9497 23.7841 55.0532 23.6746 55.3533 23.6965C55.766 23.7277 56.1811 23.6746 56.5973 23.7392C56.7858 23.7691 56.7847 23.8487 56.7858 23.9731C56.7904 24.2958 56.7939 24.6185 56.7939 24.9412C56.7939 30.857 56.795 36.7727 56.7939 42.6873C56.7939 43.1241 56.7789 43.5609 56.7709 43.9977H54.9578L54.9589 44Z" fill="black"/>
<path d="M76.5303 6.44723C76.5303 4.43729 76.536 2.42735 76.5222 0.417402C76.5211 0.184599 76.5947 0.102772 76.8016 0.0935521C76.9269 0.0877897 77.0511 0.0797222 77.1764 0.0797222C79.0517 0.0797222 80.928 0.0624349 82.8033 0.0843322C84.3876 0.102772 85.8857 1.10083 86.3571 2.5449C86.7561 3.76769 86.5445 4.86947 85.6707 5.85139C85.1557 6.4311 84.5267 6.80105 83.8139 7.04192C83.5081 7.14564 83.5 7.33234 83.5621 7.56399C83.7748 8.36152 84.0059 9.15559 84.2175 9.95426C84.5785 11.32 84.9257 12.6903 85.2879 14.056C85.7075 15.6441 86.1352 17.2288 86.5629 18.8146C86.694 19.3021 86.8308 19.7873 86.9745 20.2714C87.047 20.5157 86.9653 20.6136 86.7159 20.6125C86.0387 20.6102 85.3615 20.6125 84.6843 20.6183C84.4463 20.6206 84.3336 20.4926 84.2899 20.2806C84.1002 19.3482 83.9312 18.4112 83.7185 17.4835C83.3517 15.8873 83.0792 14.2726 82.7366 12.6718C82.4239 11.2093 82.1479 9.73874 81.8478 8.27278C81.8111 8.09529 81.7639 7.91896 81.7145 7.74494C81.6765 7.6147 81.5949 7.56745 81.4454 7.56169C80.7705 7.53518 80.1301 7.72534 79.4794 7.84751C79.154 7.90859 78.8275 7.97198 78.5044 8.04919C78.2813 8.10221 78.2572 8.2163 78.2848 8.3765C78.394 8.99308 78.3538 9.61543 78.3595 10.2355C78.3664 10.9327 78.3676 11.6311 78.3595 12.3284C78.3549 12.7398 78.2618 12.832 77.8467 12.8412C77.4926 12.8493 77.1385 12.8228 76.7855 12.832C76.5625 12.8378 76.5245 12.7467 76.5257 12.5404C76.5349 10.5098 76.5314 8.47907 76.5314 6.44838L76.5303 6.44723ZM81.081 3.43001V3.4254C80.2888 3.4254 79.4966 3.43116 78.7056 3.42194C78.4618 3.41964 78.3446 3.48648 78.3515 3.75617C78.3664 4.29668 78.3584 4.83951 78.3515 5.38003C78.3492 5.55405 78.3791 5.63934 78.5872 5.63588C79.1448 5.62666 79.7105 5.61513 80.2566 5.54829C81.3672 5.41114 82.4848 5.38809 83.5943 5.26247C83.9139 5.22674 84.3232 4.96167 84.4014 4.69314C84.521 4.28516 84.3934 3.86911 84.0829 3.64322C83.8771 3.4934 83.6472 3.42886 83.3942 3.42886C82.6228 3.42886 81.8524 3.42886 81.081 3.42886V3.43001Z" fill="black"/>
<path d="M28.3217 12.8195C28.1263 12.7319 28.1516 12.5544 28.1504 12.3907C28.1504 8.61172 28.1504 4.83271 28.1504 1.05369C28.1504 0.84624 28.1412 0.638792 28.1366 0.431344C28.132 0.204303 28.2321 0.0844439 28.4701 0.0844439C28.9805 0.0867489 29.491 0.082139 30.0015 0.082139C32.2619 0.0809865 34.5223 0.079834 36.7827 0.079834C37.2851 0.079834 37.284 0.0844439 37.2805 0.5731C37.2748 1.4052 37.2621 2.23845 37.2713 3.07055C37.2748 3.34714 37.1736 3.42897 36.9069 3.42782C34.7086 3.42321 32.5114 3.43243 30.3131 3.42667C30.067 3.42667 30.0004 3.49351 30.0061 3.73899C30.0234 4.48811 30.0211 5.23838 30.0061 5.9875C30.0015 6.20763 30.0636 6.26064 30.2809 6.25949C32.1665 6.25142 34.0521 6.26295 35.9365 6.24681C36.2354 6.24451 36.3044 6.34708 36.2998 6.60869C36.2849 7.54106 36.2734 8.47227 36.2757 9.40463C36.2757 9.58212 36.1434 9.5752 36.0561 9.60402C35.9526 9.63974 35.8319 9.62591 35.718 9.62591C33.9164 9.62591 32.1136 9.62591 30.3119 9.61669C30.0705 9.61554 29.9889 9.68008 30.005 9.92787C30.028 10.2805 30.0257 10.6366 30.005 10.9893C29.9923 11.214 30.067 11.259 30.2809 11.2578C32.5102 11.2498 34.7385 11.2578 36.9678 11.2475C37.2184 11.2463 37.284 11.3189 37.2713 11.5552C37.2541 11.8664 37.2552 12.181 37.2759 12.491C37.2932 12.7572 37.1771 12.8425 36.9322 12.8368C36.6298 12.8298 36.3285 12.8391 36.0262 12.8391C33.7761 12.8391 31.5261 12.8391 29.276 12.8391C29.2438 12.8391 29.2116 12.8402 29.1794 12.8414C28.9173 12.8379 28.6552 12.8344 28.393 12.831C28.3689 12.8275 28.3447 12.8241 28.3194 12.8195H28.3217Z" fill="black"/>
<path d="M66.8127 23.6943C68.1671 23.6943 69.5215 23.6943 70.8771 23.6943C71.345 23.6943 71.383 23.7289 71.3853 24.1818C71.391 24.9839 71.3933 25.7861 71.3922 26.5871C71.3922 27.0008 71.3232 27.0803 70.8966 27.0607C69.0536 26.9789 67.2106 27.0342 65.3675 27.0215C65.0053 27.0192 64.642 27.0527 64.2787 27.0584C64.12 27.0607 64.0867 27.1495 64.0833 27.2786C64.0775 27.6012 64.0545 27.9239 64.0672 28.2466C64.0833 28.6604 64.0327 29.0707 64.0223 29.4833C64.0166 29.7564 64.1212 29.8843 64.4247 29.882C66.2586 29.8694 68.0924 29.8717 69.9263 29.8728C70.3425 29.8728 70.3827 29.9212 70.3838 30.3396C70.385 31.0265 70.3804 31.7145 70.3896 32.4014C70.3907 32.4993 70.3494 32.5789 70.3356 32.6687C70.308 32.8566 70.4425 33.1125 70.2482 33.2162C70.093 33.2992 69.863 33.2508 69.6664 33.2508C67.905 33.2519 66.1447 33.2542 64.3833 33.2461C64.1522 33.2461 64.0706 33.3107 64.0844 33.5493C64.1028 33.8708 64.0948 34.1946 64.0775 34.5173C64.0637 34.7755 64.1361 34.8827 64.4236 34.8804C66.5391 34.87 68.6546 34.8769 70.7702 34.8781C71.3289 34.8781 71.383 34.9334 71.3922 35.5016C71.3945 35.6364 71.3956 35.7724 71.3968 35.9072C71.4002 36.4109 71.3232 36.495 70.8093 36.4973C69.84 36.5019 68.8708 36.4985 67.9016 36.4985C66.1195 36.4985 64.3374 36.4927 62.5552 36.5054C62.2839 36.5077 62.2034 36.3775 62.2149 36.1654C62.2908 34.817 62.2391 33.4686 62.2437 32.1213C62.254 29.4775 62.2471 26.8325 62.2506 24.1887C62.2506 23.6908 62.2586 23.6897 62.7473 23.6897C64.1017 23.6897 65.4572 23.6897 66.8116 23.6897V23.6932L66.8127 23.6943Z" fill="black"/>
<path d="M62.2552 6.45069C62.2552 4.4419 62.2621 2.43426 62.2483 0.425473C62.246 0.148876 62.361 0.0866412 62.5875 0.0866412C62.9002 0.0866412 63.2129 0.0820312 63.5245 0.0820312C65.962 0.0820312 68.3994 0.0820312 70.8369 0.0820312C71.3669 0.0820312 71.3796 0.0970136 71.3819 0.614482C71.3842 1.19764 71.3888 1.7808 71.3888 2.36281C71.3888 2.6129 71.3152 2.85608 71.3612 3.11539C71.3911 3.28134 71.2772 3.42771 71.0622 3.42541C70.8334 3.42195 70.6035 3.42771 70.3747 3.42771C68.4167 3.42771 66.4575 3.43117 64.4995 3.41964C64.196 3.41734 64.066 3.50262 64.0741 3.82186C64.0925 4.53986 64.089 5.25787 64.0879 5.97587C64.0879 6.18562 64.1661 6.25938 64.3822 6.25938C66.2678 6.25247 68.1534 6.25938 70.0378 6.24901C70.2574 6.24786 70.3436 6.30433 70.3701 6.52215C70.4069 6.8241 70.3758 7.12375 70.3804 7.42455C70.3896 7.99734 70.3908 8.57012 70.3908 9.14176C70.3908 9.53591 70.2931 9.62926 69.8952 9.62926C68.1246 9.62696 66.354 9.6235 64.5823 9.62119C64.0787 9.62119 64.0741 9.62119 64.0672 10.1122C64.0637 10.383 64.0925 10.6538 64.0799 10.9235C64.0672 11.1736 64.1684 11.2416 64.4075 11.2416C66.2195 11.2358 68.0327 11.2416 69.8447 11.2451C70.2402 11.2451 70.6368 11.267 71.0312 11.2485C71.2611 11.237 71.3612 11.328 71.3681 11.5355C71.3796 11.8778 71.3899 12.2212 71.3761 12.5624C71.3681 12.7675 71.1956 12.8251 71.0209 12.8309C70.6978 12.8401 70.3747 12.8389 70.0528 12.8389C67.636 12.8401 65.2192 12.8436 62.8025 12.8413C62.261 12.8413 62.2506 12.8332 62.2495 12.2881C62.2449 10.3415 62.2472 8.3961 62.2472 6.44954C62.2483 6.44954 62.2495 6.44954 62.2506 6.44954L62.2552 6.45069Z" fill="black"/>
<path d="M32.5274 23.6194C34.3382 23.6378 35.7489 24.4307 36.8217 25.861C37.5184 26.7899 37.9059 27.8594 38.0645 28.9934C38.2772 30.5044 38.1657 32.0014 37.4931 33.3971C36.8194 34.7939 35.7719 35.8185 34.2704 36.3072C33.6817 36.4985 33.0712 36.6552 32.4457 36.6195C31.3397 36.5561 30.3176 36.2253 29.4196 35.5557C28.1997 34.6464 27.4754 33.4029 27.1604 31.953C26.912 30.8075 26.9166 29.6388 27.1684 28.4668C27.3846 27.4572 27.787 26.549 28.4009 25.7446C29.2196 24.6728 30.2819 23.9478 31.6329 23.6828C31.9318 23.624 32.2273 23.6413 32.5285 23.6205L32.5274 23.6194ZM35.8892 29.0165C35.8892 28.1867 35.7731 27.5932 35.2511 26.7219C34.4658 25.4115 33.2218 25.0934 31.8904 25.2905C30.889 25.438 30.2198 26.1018 29.7806 26.9685C29.3391 27.841 29.1425 28.7699 29.2471 29.7702C29.3127 30.3891 29.4277 30.9838 29.7484 31.5036C30.4509 32.6399 31.4811 33.1897 32.8343 33.0836C33.8151 33.0064 34.6245 32.6065 35.1982 31.794C35.7168 31.0587 35.9088 30.2255 35.8892 29.0165Z" fill="black"/>
<path d="M18.105 12.0496C18.105 9.36314 18.105 6.67784 18.105 3.99139C18.105 3.92915 18.0981 3.86577 18.1016 3.80353C18.1177 3.52578 18.0004 3.4209 17.713 3.42551C16.7656 3.43934 15.8171 3.42897 14.8697 3.42897C14.7443 3.42897 14.619 3.43128 14.4948 3.42667C14.0166 3.41168 14.0062 3.40016 14.0062 2.92994C14.0062 2.07595 14.0085 1.22195 14.0039 0.369109C14.0039 0.219285 14.0016 0.131696 14.2051 0.121324C14.3891 0.112104 14.5753 0.079834 14.7627 0.079834C17.6589 0.079834 20.554 0.079834 23.4502 0.0809865C24.0435 0.0809865 24.0653 0.082139 24.0423 0.667604C24.0182 1.27497 24.0734 1.88233 24.017 2.48969C23.9998 2.66833 24.0596 2.85388 24.0711 3.03712C24.0872 3.31487 23.9756 3.44165 23.6698 3.43704C22.5557 3.42321 21.4404 3.4405 20.3263 3.42782C20.0642 3.42436 20.0033 3.50388 20.0033 3.75974C20.0113 9.15224 20.009 14.5459 20.009 19.9384C20.009 20.011 20.0125 20.0848 20.009 20.1574C19.9803 20.5988 19.955 20.6218 19.5169 20.623C19.1421 20.6241 18.7661 20.6161 18.3925 20.631C18.1844 20.6391 18.1073 20.5458 18.1073 20.3579C18.1073 20.1078 18.1073 19.8577 18.1073 19.6088C18.1073 17.0894 18.1073 14.5701 18.1073 12.0508L18.105 12.0496Z" fill="black"/>
<path d="M44.5549 24.0134C44.5572 26.6987 44.5595 29.3852 44.5584 32.0705C44.5584 32.3056 44.54 32.5419 44.5158 32.7758C44.4905 33.0179 44.6101 33.0882 44.8263 33.0824C45.1597 33.0743 45.4931 33.0743 45.8265 33.0743C47.4097 33.0743 48.9929 33.0743 50.5773 33.0801C51.0682 33.0824 51.1384 33.1492 51.143 33.6264C51.1522 34.4596 51.1499 35.2917 51.1464 36.125C51.1453 36.4223 50.9406 36.4984 50.6911 36.4995C49.7541 36.5018 48.8159 36.4995 47.8788 36.4995C46.2956 36.4995 44.7124 36.4995 43.1292 36.4995C42.7188 36.4995 42.7073 36.4822 42.7061 36.0881C42.7038 35.2456 42.7705 34.4043 42.728 33.5618C42.7866 33.5215 42.7843 33.4812 42.728 33.4408C42.7268 30.5688 42.7268 27.6968 42.7211 24.8248C42.7211 24.5528 42.6808 24.282 42.6739 24.01C42.6693 23.8106 42.7993 23.7 42.9821 23.6965C43.419 23.6861 43.857 23.6896 44.2939 23.7069C44.4158 23.7115 44.571 23.7391 44.5595 23.9316C44.5158 23.957 44.5135 23.9846 44.5561 24.0134H44.5549Z" fill="black"/>
<path d="M42.7245 12.4956C42.7256 9.16606 42.7279 5.83536 42.7279 2.50582C42.7279 1.82931 42.7371 1.1528 42.7061 0.477436C42.6911 0.161654 42.8475 0.0798273 43.0981 0.0740648C43.4522 0.0659974 43.8064 0.0821323 44.1593 0.0786748C44.4054 0.0763698 44.5135 0.177789 44.5215 0.434794C44.5974 2.90689 44.533 5.37898 44.5503 7.85107C44.5526 8.2095 44.5732 8.56677 44.5307 8.9298C44.4916 9.26633 44.6043 9.44727 45.0216 9.44496C46.9061 9.4369 48.7917 9.44035 50.6761 9.44151C51.0992 9.44151 51.1406 9.483 51.1417 9.90135C51.1452 10.692 51.1452 11.4837 51.1452 12.2743C51.1452 12.7434 51.0635 12.8333 50.5922 12.8344C48.1972 12.8402 45.8023 12.8414 43.4074 12.846C43.2648 12.846 43.12 12.8771 42.9797 12.8609C42.8325 12.8437 42.7141 12.7653 42.7325 12.5832C42.7636 12.5509 42.759 12.5221 42.7245 12.4956Z" fill="black"/>
<path d="M56.8007 0.522308C56.8007 6.94398 56.8007 13.3668 56.7984 19.7885C56.7984 19.9326 56.757 20.0801 56.7765 20.2207C56.8225 20.5468 56.6707 20.6367 56.3764 20.6264C56.0223 20.6137 55.6682 20.6114 55.314 20.6275C55.0519 20.639 54.9461 20.5618 54.9507 20.2783C54.9668 19.4255 54.953 18.5715 54.953 17.7175C54.9542 11.9723 54.9599 6.22598 54.9473 0.480818C54.9473 0.169646 55.0645 0.0924288 55.3152 0.0878189C55.721 0.0809039 56.1281 0.078599 56.5339 0.0832089C56.7627 0.0855139 56.8305 0.22727 56.8029 0.434718C56.7719 0.462378 56.7696 0.491191 56.7984 0.522308H56.8007Z" fill="black"/>
<path d="M42.7257 33.4409C42.7822 33.4812 42.7833 33.5215 42.7257 33.5619C42.6854 33.5607 42.6497 33.5515 42.6497 33.5008C42.6497 33.4501 42.6854 33.442 42.7257 33.4397V33.4409Z" fill="black"/>
<path d="M29.1816 12.8412C29.2139 12.8412 29.2462 12.84 29.2784 12.8389C29.2727 12.8746 29.2681 12.9172 29.2208 12.9092C29.2047 12.9069 29.1943 12.8642 29.1816 12.84V12.8412Z" fill="black"/>
<path d="M56.8009 0.522404C56.7721 0.491287 56.7733 0.462474 56.8055 0.434814C56.8355 0.465932 56.832 0.494744 56.8009 0.522404Z" fill="black"/>
<path d="M42.7245 12.4956C42.759 12.5221 42.7625 12.5509 42.7325 12.5832C42.7026 12.5567 42.7003 12.5279 42.7245 12.4956Z" fill="black"/>
<path d="M28.3215 12.8193C28.3457 12.8228 28.3699 12.8263 28.3953 12.8309C28.3665 12.8562 28.3423 12.8481 28.3215 12.8193Z" fill="black"/>
<path d="M44.5549 24.0135C44.5122 23.9847 44.5146 23.957 44.5583 23.9316C44.5572 23.9593 44.556 23.987 44.5549 24.0135Z" fill="black"/>
</svg>
